<svg xmlns="http://www.w3.org/2000/svg" width="30" height="30" viewBox="0 0 30 30" fill="none">
<path d="M9.63749 19.1125L6.76249 16.25L18.75 16.25C19.0815 16.25 19.3995 16.1183 19.6339 15.8839C19.8683 15.6495 20 15.3315 20 15C20 14.6685 19.8683 14.3505 19.6339 14.1161C19.3995 13.8817 19.0815 13.75 18.75 13.75L6.76249 13.75L9.63749 10.8875C9.75465 10.7713 9.84765 10.633 9.91111 10.4807C9.97457 10.3284 10.0072 10.165 10.0072 10C10.0072 9.83499 9.97457 9.6716 9.91111 9.51928C9.84765 9.36695 9.75465 9.2287 9.63749 9.1125C9.52129 8.99534 9.38304 8.90235 9.23071 8.83888C9.07839 8.77542 8.91501 8.74275 8.74999 8.74275C8.58498 8.74275 8.4216 8.77542 8.26927 8.83888C8.11695 8.90235 7.9787 8.99534 7.86249 9.1125L2.86249 14.1125C2.74869 14.2314 2.65949 14.3716 2.59999 14.525C2.47497 14.8293 2.47497 15.1707 2.59999 15.475C2.65949 15.6284 2.74869 15.7686 2.86249 15.8875L7.86249 20.8875C7.97904 21.004 8.1174 21.0965 8.26968 21.1596C8.42196 21.2226 8.58517 21.2551 8.74999 21.2551C8.91482 21.2551 9.07803 21.2226 9.2303 21.1596C9.38258 21.0965 9.52094 21.004 9.63749 20.8875C9.75404 20.771 9.84649 20.6326 9.90957 20.4803C9.97264 20.328 10.0051 20.1648 10.0051 20C10.0051 19.8352 9.97264 19.672 9.90957 19.5197C9.84649 19.3674 9.75404 19.229 9.63749 19.1125ZM15 3.75C15 4.08152 15.1317 4.39946 15.3661 4.63388C15.6005 4.86831 15.9185 5 16.25 5L23.75 5C24.0815 5 24.3995 5.1317 24.6339 5.36612C24.8683 5.60054 25 5.91848 25 6.25L25 23.75C25 24.0815 24.8683 24.3995 24.6339 24.6339C24.3995 24.8683 24.0815 25 23.75 25L16.25 25C15.9185 25 15.6005 25.1317 15.3661 25.3661C15.1317 25.6005 15 25.9185 15 26.25C15 26.5815 15.1317 26.8995 15.3661 27.1339C15.6005 27.3683 15.9185 27.5 16.25 27.5L23.75 27.5C24.7446 27.5 25.6984 27.1049 26.4016 26.4017C27.1049 25.6984 27.5 24.7446 27.5 23.75L27.5 6.25C27.5 5.25544 27.1049 4.30161 26.4016 3.59835C25.6984 2.89509 24.7446 2.5 23.75 2.5L16.25 2.5C15.9185 2.5 15.6005 2.63169 15.3661 2.86612C15.1317 3.10054 15 3.41848 15 3.75Z" fill="#D3D3D3"/>
</svg>